<svg width="923" height="1087" viewBox="0 0 923 1087" fill="none" xmlns="http://www.w3.org/2000/svg">
<path d="M384.368 705.327C40.3675 568.827 210.367 185.327 334.868 185.327C395.534 194.494 523.567 229.827 550.367 297.827C577.167 365.827 674.867 417.161 720.367 434.327C696.767 703.127 486.534 726.994 384.368 705.327Z" fill="#E27421"/>
<path d="M259.867 139.827C143.067 116.227 53.2005 194.661 22.8672 236.827C281.867 -269.173 917.867 195.327 913.867 203.327C909.867 211.327 818.867 398.827 767.867 410.827C727.067 420.427 704.534 406.827 698.367 398.827C458.867 126.327 405.867 169.327 259.867 139.827Z" fill="#E27421" stroke="black"/>
<path d="M370.87 744.327C11.8692 623.827 126.87 251.827 279.871 180.327C107.072 241.127 91.2017 445.494 108.867 545.827C142.534 643.494 275.47 836.927 505.87 783.327C736.27 729.727 765.87 522.994 751.87 426.327C734.67 729.527 493.036 764.161 370.87 744.327Z" fill="#E27421" stroke="#E27421"/>
<path d="M483.867 1086.83C381.067 1032.03 280.367 895.661 242.867 834.327C707.667 1031.13 873.383 588.327 862.367 331.327L922.367 234.827C931.567 739.627 633.867 1013.16 483.867 1086.83Z" fill="#E27421"/>
<path d="M69.8671 406.827C83.8671 304.027 168.034 217.661 208.367 187.327C103.367 169.327 28.3672 236.827 4.86715 319.827C-13.9328 386.227 40.3671 405.494 69.8671 406.827Z" fill="#E27421" stroke="black"/>
<ellipse cx="428.867" cy="467.327" rx="103" ry="111.5" fill="white"/>
<ellipse cx="531.5" cy="336" rx="22.5" ry="29" fill="white"/>
<path d="M370.706 479.258H341.085C338.488 501.737 359.75 528.971 370.706 539.779V479.258Z" fill="#FF923E"/>
<path d="M378.821 547.127V453.321H424.266V561.393C403.816 562.085 385.448 552.171 378.821 547.127Z" fill="#FF923E"/>
<path d="M480.261 420.035H434.004V561.393C449.585 564.16 471.334 553.035 480.261 547.127V420.035Z" fill="#FF923E"/>
<path d="M486.347 539.779V395.827C495.815 405.193 515.156 432.485 516.779 466.722C518.402 500.959 497.167 529.692 486.347 539.779Z" fill="#FF923E"/>
<path d="M433.867 561.822V419.827H480.867V547.926C460.024 562.69 436.592 564.427 433.867 561.822Z" fill="#FF984A"/>
</svg>
