<svg width="1762" height="723" viewBox="0 0 1762 723" fill="none" xmlns="http://www.w3.org/2000/svg">
<path d="M2 260.5V185H279V260.5H182.5V535H98V260.5H2ZM344.234 305V535H269.734V305H344.234ZM410.734 383C406.734 379 402.401 375.833 397.734 373.5C393.401 371.167 387.901 370 381.234 370C373.901 370 367.401 372 361.734 376C356.068 380 351.734 385.833 348.734 393.5C345.734 401.167 344.234 410.5 344.234 421.5L326.234 395C326.234 376.667 329.734 360.333 336.734 346C344.068 331.667 353.568 320.333 365.234 312C376.901 303.667 389.068 299.5 401.734 299.5C410.068 299.5 418.068 301.167 425.734 304.5C433.401 307.833 439.234 312.5 443.234 318.5L410.734 383ZM533.801 463C533.801 469 535.301 474.167 538.301 478.5C541.301 482.5 545.301 485.667 550.301 488C555.301 490 560.801 491 566.801 491C575.467 491 583.467 489.167 590.801 485.5C598.134 481.833 604.134 476.333 608.801 469C613.467 461.667 615.801 452.667 615.801 442L623.801 472C623.801 486.667 619.801 499.167 611.801 509.5C603.801 519.5 593.467 527.167 580.801 532.5C568.134 537.5 554.467 540 539.801 540C525.134 540 511.467 537.333 498.801 532C486.467 526.333 476.467 518 468.801 507C461.467 496 457.801 482.667 457.801 467C457.801 445 465.634 427.667 481.301 415C496.967 402 519.134 395.5 547.801 395.5C561.801 395.5 574.301 396.833 585.301 399.5C596.634 402.167 606.301 405.5 614.301 409.5C622.301 413.5 628.301 417.667 632.301 422V455.5C624.301 449.5 614.967 445 604.301 442C593.967 438.667 582.967 437 571.301 437C562.301 437 555.134 438 549.801 440C544.467 442 540.467 445 537.801 449C535.134 452.667 533.801 457.333 533.801 463ZM500.301 375.5L474.801 325C487.801 318.667 503.467 312.667 521.801 307C540.134 301.333 560.134 298.5 581.801 298.5C602.134 298.5 620.301 301.5 636.301 307.5C652.301 313.167 664.967 321.5 674.301 332.5C683.634 343.5 688.301 357 688.301 373V535H615.801V390C615.801 384.333 614.801 379.5 612.801 375.5C611.134 371.167 608.467 367.5 604.801 364.5C601.134 361.5 596.467 359.333 590.801 358C585.467 356.667 579.301 356 572.301 356C561.967 356 551.801 357.167 541.801 359.5C532.134 361.833 523.634 364.667 516.301 368C508.967 371 503.634 373.5 500.301 375.5ZM808.332 420C808.332 432.333 810.999 443 816.332 452C821.665 460.667 828.999 467.5 838.332 472.5C847.999 477.5 858.332 480 869.332 480C878.665 480 887.499 478.667 895.832 476C904.499 473 912.332 469 919.332 464C926.665 459 932.665 452.833 937.332 445.5V519C929.332 525.333 919.332 530.5 907.332 534.5C895.332 538.167 880.665 540 863.332 540C837.999 540 815.165 535 794.832 525C774.832 515 758.999 501 747.332 483C735.999 465 730.332 444 730.332 420C730.332 395.667 735.999 374.667 747.332 357C758.999 339 774.832 325 794.832 315C815.165 305 837.999 300 863.332 300C880.665 300 895.332 302 907.332 306C919.332 309.667 929.332 314.333 937.332 320V394C932.665 386.667 926.499 380.5 918.832 375.5C911.499 370.5 903.499 366.667 894.832 364C886.165 361.333 877.665 360 869.332 360C858.332 360 847.999 362.667 838.332 368C828.999 373.333 821.665 380.5 816.332 389.5C810.999 398.5 808.332 408.667 808.332 420ZM999.402 185H1086.9V535H999.402V185ZM1205.9 185H1304.9L1162.9 349L1312.4 535H1209.9L1062.4 351.5L1205.9 185Z" fill="#E27421"/>
<path d="M1431.54 367.978H1392.48C1389.06 395.802 1417.09 429.511 1431.54 442.888V367.978Z" fill="white"/>
<path d="M1442.24 451.985V335.873H1502.17V469.642C1475.2 470.498 1450.98 458.227 1442.24 451.985Z" fill="white"/>
<path d="M1576.01 294.672H1515.01V469.642C1535.56 473.067 1564.24 459.297 1576.01 451.985V294.672Z" fill="white"/>
<path d="M1584.04 442.888V264.708C1596.52 276.301 1622.03 310.082 1624.17 352.46C1626.31 394.838 1598.31 430.403 1584.04 442.888Z" fill="white"/>
<path d="M1615.07 506.562L1600.62 489.44C1610.04 485.159 1621.31 474.458 1625.77 469.642L1640.22 487.3L1644.5 484.624L1730.11 574.517C1742.42 620.534 1701.22 620.534 1686.77 610.903L1611.33 510.308L1615.07 506.562Z" fill="url(#paint0_linear_26_95)"/>
<path d="M1222.19 513.212L1244.18 535.108L1304.65 474.087L1354 518.274L1390.52 482.511L1368.5 459.545L1352.86 475.483L1303.44 428.622L1222.19 513.212Z" fill="white"/>
<path d="M1700.89 191.42L1650.91 261.726C1651.74 256.376 1639.25 239.818 1632.9 232.209L1676.4 171.681L1646.7 150.106L1739.07 109L1729.79 211.501L1700.89 191.42Z" fill="white"/>
<path d="M1508.59 208.902C1592.26 208.902 1659.11 274.424 1659.11 354.066C1659.11 433.707 1592.26 499.229 1508.59 499.229C1424.93 499.229 1358.08 433.708 1358.08 354.066C1358.08 274.424 1424.93 208.902 1508.59 208.902Z" stroke="url(#paint1_linear_26_95)" stroke-width="35"/>
<path d="M1515.01 469.642V294.672H1576.55V452.52C1549.26 470.712 1518.58 472.853 1515.01 469.642Z" fill="#E27421"/>
<defs>
<linearGradient id="paint0_linear_26_95" x1="1720.84" y1="514.416" x2="1613.41" y2="567.642" gradientUnits="userSpaceOnUse">
<stop stop-color="#FF984A"/>
<stop offset="0.25" stop-color="#E27421"/>
<stop offset="0.927885" stop-color="#FF923E"/>
</linearGradient>
<linearGradient id="paint1_linear_26_95" x1="1647.18" y1="290.926" x2="1389.27" y2="437.537" gradientUnits="userSpaceOnUse">
<stop stop-color="#FF984A"/>
<stop offset="0.25" stop-color="#E27421"/>
<stop offset="0.927885" stop-color="#FF923E"/>
</linearGradient>
</defs>
</svg>
