<svg width="1814" height="825" viewBox="0 0 1814 825" fill="none" xmlns="http://www.w3.org/2000/svg">
<path d="M26.5 49L2.5 104C6.5 113.6 20.8333 124.667 27.5 129C26.7 143 29.1667 155.167 30.5 159.5C30.5 178.7 46.8333 191.5 55 195.5L174 206.5L274.5 211.5L407.5 216C419.9 212 426.333 199.333 428 193.5L444 136.5C445.333 137.167 450.2 138.1 459 136.5C467.8 134.9 475.333 127.167 478 123.5L502.5 59.5V44.5C502.5 36.5 494.833 27.8333 491 24.5C469.5 18.8333 425.4 6.9 421 4.5C416.6 2.1 410.167 2.16667 407.5 2.5L48 34.5C39.6 36.1 30.1667 44.8333 26.5 49Z" fill="#E27421" stroke="#E27421" stroke-width="4"/>
<path d="M325 105.5H11.4998C7.99985 105.5 27.9998 65 31.9998 55.5C35.1998 47.9 49.3332 40.6667 55.9998 38C169.883 28.0903 389.02 9.00608 404.892 7.5642C405.097 7.53751 405.299 7.51606 405.5 7.5C406.062 7.45503 405.838 7.47832 404.892 7.5642C394.921 8.86716 380.879 22.6405 375 29.5C370.833 36.8333 360 57.3 350 80.5C340 103.7 329.167 106.833 325 105.5Z" fill="white"/>
<path d="M460 407V637H385.5V407H460ZM526.5 485C522.5 481 518.167 477.833 513.5 475.5C509.167 473.167 503.667 472 497 472C489.667 472 483.167 474 477.5 478C471.833 482 467.5 487.833 464.5 495.5C461.5 503.167 460 512.5 460 523.5L442 497C442 478.667 445.5 462.333 452.5 448C459.833 433.667 469.333 422.333 481 414C492.667 405.667 504.833 401.5 517.5 401.5C525.833 401.5 533.833 403.167 541.5 406.5C549.167 409.833 555 414.5 559 420.5L526.5 485ZM649.566 565C649.566 571 651.066 576.167 654.066 580.5C657.066 584.5 661.066 587.667 666.066 590C671.066 592 676.566 593 682.566 593C691.233 593 699.233 591.167 706.566 587.5C713.9 583.833 719.9 578.333 724.566 571C729.233 563.667 731.566 554.667 731.566 544L739.566 574C739.566 588.667 735.566 601.167 727.566 611.5C719.566 621.5 709.233 629.167 696.566 634.5C683.9 639.5 670.233 642 655.566 642C640.9 642 627.233 639.333 614.566 634C602.233 628.333 592.233 620 584.566 609C577.233 598 573.566 584.667 573.566 569C573.566 547 581.4 529.667 597.066 517C612.733 504 634.9 497.5 663.566 497.5C677.566 497.5 690.066 498.833 701.066 501.5C712.4 504.167 722.066 507.5 730.066 511.5C738.066 515.5 744.066 519.667 748.066 524V557.5C740.066 551.5 730.733 547 720.066 544C709.733 540.667 698.733 539 687.066 539C678.066 539 670.9 540 665.566 542C660.233 544 656.233 547 653.566 551C650.9 554.667 649.566 559.333 649.566 565ZM616.066 477.5L590.566 427C603.566 420.667 619.233 414.667 637.566 409C655.9 403.333 675.9 400.5 697.566 400.5C717.9 400.5 736.066 403.5 752.066 409.5C768.066 415.167 780.733 423.5 790.066 434.5C799.4 445.5 804.066 459 804.066 475V637H731.566V492C731.566 486.333 730.566 481.5 728.566 477.5C726.9 473.167 724.233 469.5 720.566 466.5C716.9 463.5 712.233 461.333 706.566 460C701.233 458.667 695.066 458 688.066 458C677.733 458 667.566 459.167 657.566 461.5C647.9 463.833 639.4 466.667 632.066 470C624.733 473 619.4 475.5 616.066 477.5ZM924.098 522C924.098 534.333 926.764 545 932.098 554C937.431 562.667 944.764 569.5 954.098 574.5C963.764 579.5 974.098 582 985.098 582C994.431 582 1003.26 580.667 1011.6 578C1020.26 575 1028.1 571 1035.1 566C1042.43 561 1048.43 554.833 1053.1 547.5V621C1045.1 627.333 1035.1 632.5 1023.1 636.5C1011.1 640.167 996.431 642 979.098 642C953.764 642 930.931 637 910.598 627C890.598 617 874.764 603 863.098 585C851.764 567 846.098 546 846.098 522C846.098 497.667 851.764 476.667 863.098 459C874.764 441 890.598 427 910.598 417C930.931 407 953.764 402 979.098 402C996.431 402 1011.1 404 1023.1 408C1035.1 411.667 1045.1 416.333 1053.1 422V496C1048.43 488.667 1042.26 482.5 1034.6 477.5C1027.26 472.5 1019.26 468.667 1010.6 466C1001.93 463.333 993.431 462 985.098 462C974.098 462 963.764 464.667 954.098 470C944.764 475.333 937.431 482.5 932.098 491.5C926.764 500.5 924.098 510.667 924.098 522ZM1115.17 287H1202.67V637H1115.17V287ZM1321.67 287H1420.67L1278.67 451L1428.17 637H1325.67L1178.17 453.5L1321.67 287Z" fill="#E27421"/>
<path d="M1483.54 490.978H1444.48C1441.06 518.802 1469.09 552.511 1483.54 565.888V490.978Z" fill="url(#paint0_linear_26_15)"/>
<path d="M1494.24 574.985V458.873H1554.17V592.642C1527.2 593.498 1502.98 581.227 1494.24 574.985Z" fill="url(#paint1_linear_26_15)"/>
<path d="M1628.01 417.672H1567.01V592.642C1587.56 596.067 1616.24 582.297 1628.01 574.985V417.672Z" fill="url(#paint2_linear_26_15)"/>
<path d="M1636.04 565.888V387.708C1648.52 399.301 1674.03 433.082 1676.17 475.46C1678.31 517.838 1650.31 553.403 1636.04 565.888Z" fill="url(#paint3_linear_26_15)"/>
<path d="M1667.07 629.562L1652.62 612.44C1662.04 608.159 1673.31 597.458 1677.77 592.642L1692.22 610.3L1696.5 607.624L1782.11 697.517C1794.42 743.534 1753.22 743.534 1738.77 733.903L1663.33 633.308L1667.07 629.562Z" fill="url(#paint4_linear_26_15)"/>
<path d="M1274.19 636.212L1296.18 658.108L1356.65 597.087L1406 641.274L1442.52 605.511L1420.5 582.545L1404.86 598.483L1355.44 551.622L1274.19 636.212Z" fill="url(#paint5_linear_26_15)"/>
<path d="M1752.89 314.42L1702.91 384.726C1703.74 379.376 1691.25 362.818 1684.9 355.209L1728.4 294.681L1698.7 273.106L1791.07 232L1781.79 334.501L1752.89 314.42Z" fill="url(#paint6_linear_26_15)"/>
<path d="M1560.59 331.902C1644.26 331.902 1711.11 397.424 1711.11 477.066C1711.11 556.707 1644.26 622.229 1560.59 622.229C1476.93 622.229 1410.08 556.707 1410.08 477.066C1410.08 397.424 1476.93 331.902 1560.59 331.902Z" stroke="url(#paint7_linear_26_15)" stroke-width="35"/>
<path d="M1567.01 592.642V417.672H1628.55V575.52C1601.26 593.712 1570.58 595.853 1567.01 592.642Z" fill="#E27421"/>
<path d="M312.5 113.5C310.5 128.333 307.4 162.9 311 182.5C311.667 186.333 316.5 194.9 330.5 198.5C348 203 384 207 400 206C412.8 205.2 418.667 190 420 182.5C424.5 165.167 433.6 125.4 434 105V105C434.254 92.0637 436.249 80.2382 424.581 74.646C424.229 74.4775 423.87 74.3063 423.503 74.1324C421.195 73.0389 418.733 72.2552 416.225 71.7707L376 64" stroke="white" stroke-width="3" stroke-linecap="round"/>
<path d="M406.5 178.5C416 162 423 87.5 421.5 84C420.629 81.967 422.479 79.4027 424.316 80.6348C425.83 81.6504 427.049 82.7969 427.5 84C428.7 87.2 428 100.333 427.5 106.5C426 142 415.333 173 412.5 183C411.965 185.676 409.312 189.246 406.816 192.066C404.715 194.438 397.703 198.496 394.783 199.728C387.367 202.859 400.779 194.574 403.483 186.991C404.682 183.627 405.709 180.281 406.5 178.5Z" fill="white" stroke="white" stroke-linecap="round"/>
<path d="M364.339 130.807L362.66 128.792C362.343 128.412 362.508 127.831 362.979 127.674C363.285 127.572 363.623 127.693 363.794 127.967C366.025 131.554 365.434 131.653 364.702 131.151C364.564 131.056 364.446 130.935 364.339 130.807Z" stroke="white" stroke-linecap="round"/>
<path d="M352 125C362 103.5 384.5 130.5 363 143" stroke="white" stroke-linecap="round"/>
<path d="M33.5 55L18 95.5L346 44.5C356 36.1 352.833 29.3333 350 27L46 44.5C40.4 46.9 35.3333 52.5 33.5 55Z" fill="#E27421"/>
<path d="M394 120.5C392 112.5 383.5 105.167 379.5 102.5C382.667 106.167 389.4 115.3 391 122.5C392.6 129.7 391.667 137.5 391 140.5C390.2 149.7 378.333 160.333 372.5 164.5C386.1 160.9 392.5 148 394 141C394.833 138.167 396 128.5 394 120.5Z" fill="white"/>
<path d="M370.5 96.5C385.856 96.5 398.5 112.496 398.5 132.5C398.5 152.504 385.856 168.5 370.5 168.5C355.144 168.5 342.5 152.504 342.5 132.5C342.5 112.496 355.144 96.5 370.5 96.5Z" stroke="white"/>
<path d="M50.4998 167.5C46.7433 167.155 43.5048 166.725 40.7242 166.231C28.938 164.141 32.8634 137.644 32.0583 125.701C31.4869 117.226 38.2417 110.053 46.7357 110.116L299.5 111.974C301.437 111.989 303 113.563 303 115.5L301.298 164.01C301.102 169.603 302.119 175.174 304.28 180.337C307.963 189.135 314.761 196.267 323.373 200.368L341.5 209L324.872 202.138C315.035 198.078 304.556 195.795 293.922 195.395L150.831 190.012C150.616 190.004 150.409 189.927 150.24 189.793C149.497 189.198 149.918 188 150.869 188H274.672C282.307 188 295.302 181.42 288.412 178.128C286.785 177.351 285.644 177.475 283.842 177.421C220.423 175.539 89.1515 171.05 50.4998 167.5Z" fill="white" stroke="white" stroke-width="3" stroke-linecap="round"/>
<path d="M190 230C175.2 219.6 173.167 209.667 174 206L297 214L288 230V639H190V230Z" fill="#E27421" stroke="#E27421" stroke-width="6"/>
<path d="M184.5 219V215L217.5 206.5L221.5 219H184.5Z" fill="white"/>
<path d="M251.5 224L287.5 232.5V227.5L251.5 224Z" fill="white"/>
<defs>
<linearGradient id="paint0_linear_26_15" x1="1676.17" y1="713.57" x2="1682.13" y2="418.573" gradientUnits="userSpaceOnUse">
<stop stop-color="#133E94"/>
<stop offset="0.648907" stop-color="#113785"/>
<stop offset="1" stop-color="#5D93FD"/>
</linearGradient>
<linearGradient id="paint1_linear_26_15" x1="1676.17" y1="713.57" x2="1682.13" y2="418.573" gradientUnits="userSpaceOnUse">
<stop stop-color="#133E94"/>
<stop offset="0.648907" stop-color="#113785"/>
<stop offset="1" stop-color="#5D93FD"/>
</linearGradient>
<linearGradient id="paint2_linear_26_15" x1="1676.17" y1="713.57" x2="1682.13" y2="418.573" gradientUnits="userSpaceOnUse">
<stop stop-color="#133E94"/>
<stop offset="0.648907" stop-color="#113785"/>
<stop offset="1" stop-color="#5D93FD"/>
</linearGradient>
<linearGradient id="paint3_linear_26_15" x1="1676.17" y1="713.57" x2="1682.13" y2="418.573" gradientUnits="userSpaceOnUse">
<stop stop-color="#133E94"/>
<stop offset="0.648907" stop-color="#113785"/>
<stop offset="1" stop-color="#5D93FD"/>
</linearGradient>
<linearGradient id="paint4_linear_26_15" x1="1666.38" y1="789.03" x2="1800.47" y2="740.962" gradientUnits="userSpaceOnUse">
<stop stop-color="#133E94"/>
<stop offset="0.428172" stop-color="#113785"/>
<stop offset="1" stop-color="#5D93FD"/>
</linearGradient>
<linearGradient id="paint5_linear_26_15" x1="1293.39" y1="694.045" x2="1428.51" y2="602.137" gradientUnits="userSpaceOnUse">
<stop stop-color="#133E94"/>
<stop offset="0.398312" stop-color="#113785"/>
<stop offset="1" stop-color="#5D93FD"/>
</linearGradient>
<linearGradient id="paint6_linear_26_15" x1="1710.87" y1="430.497" x2="1828.11" y2="363.539" gradientUnits="userSpaceOnUse">
<stop stop-color="#133E94"/>
<stop offset="0.428172" stop-color="#113785"/>
<stop offset="1" stop-color="#5D93FD"/>
</linearGradient>
<linearGradient id="paint7_linear_26_15" x1="1699.18" y1="413.926" x2="1441.27" y2="560.537" gradientUnits="userSpaceOnUse">
<stop stop-color="#FF984A"/>
<stop offset="0.25" stop-color="#E27421"/>
<stop offset="0.927885" stop-color="#FF923E"/>
</linearGradient>
</defs>
</svg>
