<svg width="1815" height="825" viewBox="0 0 1815 825" fill="none" xmlns="http://www.w3.org/2000/svg">
<path d="M27 48.6691L3 103.669C7 113.269 21.3333 124.336 28 128.669C27.2 142.669 29.6667 154.836 31 159.169C31 178.369 47.3333 191.169 55.5 195.169L174.5 206.169L275 211.169L408 215.669C420.4 211.669 426.833 199.002 428.5 193.169L444.5 136.169C445.833 136.836 450.7 137.769 459.5 136.169C468.3 134.569 475.833 126.836 478.5 123.169L503 59.1691V44.1691C503 36.1691 495.333 27.5024 491.5 24.1691C470 18.5024 425.9 6.5691 421.5 4.1691C417.1 1.7691 410.667 1.83576 408 2.1691L48.5 34.1691C40.1 35.7691 30.6667 44.5024 27 48.6691Z" fill="#E27421" stroke="#E27421" stroke-width="4"/>
<path d="M325.5 105.169H11.9998C8.49985 105.169 28.4998 64.6691 32.4998 55.1691C35.6998 47.5691 49.8332 40.3358 56.4998 37.6691C170.383 27.7594 389.52 8.67517 405.392 7.2333C405.597 7.20661 405.799 7.18515 406 7.1691C406.562 7.12412 406.338 7.14741 405.392 7.2333C395.421 8.53625 381.379 22.3096 375.5 29.1691C371.333 36.5024 360.5 56.9691 350.5 80.1691C340.5 103.369 329.667 106.502 325.5 105.169Z" fill="white"/>
<path d="M460.5 406.669V636.669H386V406.669H460.5ZM527 484.669C523 480.669 518.667 477.502 514 475.169C509.667 472.836 504.167 471.669 497.5 471.669C490.167 471.669 483.667 473.669 478 477.669C472.333 481.669 468 487.502 465 495.169C462 502.836 460.5 512.169 460.5 523.169L442.5 496.669C442.5 478.336 446 462.002 453 447.669C460.333 433.336 469.833 422.002 481.5 413.669C493.167 405.336 505.333 401.169 518 401.169C526.333 401.169 534.333 402.836 542 406.169C549.667 409.502 555.5 414.169 559.5 420.169L527 484.669ZM650.066 564.669C650.066 570.669 651.566 575.836 654.566 580.169C657.566 584.169 661.566 587.336 666.566 589.669C671.566 591.669 677.066 592.669 683.066 592.669C691.733 592.669 699.733 590.836 707.066 587.169C714.4 583.502 720.4 578.002 725.066 570.669C729.733 563.336 732.066 554.336 732.066 543.669L740.066 573.669C740.066 588.336 736.066 600.836 728.066 611.169C720.066 621.169 709.733 628.836 697.066 634.169C684.4 639.169 670.733 641.669 656.066 641.669C641.4 641.669 627.733 639.002 615.066 633.669C602.733 628.002 592.733 619.669 585.066 608.669C577.733 597.669 574.066 584.336 574.066 568.669C574.066 546.669 581.9 529.336 597.566 516.669C613.233 503.669 635.4 497.169 664.066 497.169C678.066 497.169 690.566 498.502 701.566 501.169C712.9 503.836 722.566 507.169 730.566 511.169C738.566 515.169 744.566 519.336 748.566 523.669V557.169C740.566 551.169 731.233 546.669 720.566 543.669C710.233 540.336 699.233 538.669 687.566 538.669C678.566 538.669 671.4 539.669 666.066 541.669C660.733 543.669 656.733 546.669 654.066 550.669C651.4 554.336 650.066 559.002 650.066 564.669ZM616.566 477.169L591.066 426.669C604.066 420.336 619.733 414.336 638.066 408.669C656.4 403.002 676.4 400.169 698.066 400.169C718.4 400.169 736.566 403.169 752.566 409.169C768.566 414.836 781.233 423.169 790.566 434.169C799.9 445.169 804.566 458.669 804.566 474.669V636.669H732.066V491.669C732.066 486.002 731.066 481.169 729.066 477.169C727.4 472.836 724.733 469.169 721.066 466.169C717.4 463.169 712.733 461.002 707.066 459.669C701.733 458.336 695.566 457.669 688.566 457.669C678.233 457.669 668.066 458.836 658.066 461.169C648.4 463.502 639.9 466.336 632.566 469.669C625.233 472.669 619.9 475.169 616.566 477.169ZM924.598 521.669C924.598 534.002 927.264 544.669 932.598 553.669C937.931 562.336 945.264 569.169 954.598 574.169C964.264 579.169 974.598 581.669 985.598 581.669C994.931 581.669 1003.76 580.336 1012.1 577.669C1020.76 574.669 1028.6 570.669 1035.6 565.669C1042.93 560.669 1048.93 554.502 1053.6 547.169V620.669C1045.6 627.002 1035.6 632.169 1023.6 636.169C1011.6 639.836 996.931 641.669 979.598 641.669C954.264 641.669 931.431 636.669 911.098 626.669C891.098 616.669 875.264 602.669 863.598 584.669C852.264 566.669 846.598 545.669 846.598 521.669C846.598 497.336 852.264 476.336 863.598 458.669C875.264 440.669 891.098 426.669 911.098 416.669C931.431 406.669 954.264 401.669 979.598 401.669C996.931 401.669 1011.6 403.669 1023.6 407.669C1035.6 411.336 1045.6 416.002 1053.6 421.669V495.669C1048.93 488.336 1042.76 482.169 1035.1 477.169C1027.76 472.169 1019.76 468.336 1011.1 465.669C1002.43 463.002 993.931 461.669 985.598 461.669C974.598 461.669 964.264 464.336 954.598 469.669C945.264 475.002 937.931 482.169 932.598 491.169C927.264 500.169 924.598 510.336 924.598 521.669ZM1115.67 286.669H1203.17V636.669H1115.67V286.669ZM1322.17 286.669H1421.17L1279.17 450.669L1428.67 636.669H1326.17L1178.67 453.169L1322.17 286.669Z" fill="#E27421"/>
<path d="M1484.04 490.647H1444.98C1441.56 518.471 1469.59 552.181 1484.04 565.557V490.647Z" fill="white"/>
<path d="M1494.74 574.654V458.542H1554.67V592.311C1527.7 593.167 1503.48 580.896 1494.74 574.654Z" fill="white"/>
<path d="M1628.51 417.341H1567.51V592.311C1588.06 595.736 1616.74 581.967 1628.51 574.654V417.341Z" fill="white"/>
<path d="M1636.54 565.557V387.377C1649.02 398.97 1674.53 432.751 1676.67 475.129C1678.81 517.507 1650.81 553.072 1636.54 565.557Z" fill="white"/>
<path d="M1667.57 629.231L1653.12 612.109C1662.54 607.828 1673.81 597.127 1678.27 592.311L1692.72 609.969L1697 607.293L1782.61 697.186C1794.92 743.203 1753.72 743.203 1739.27 733.572L1663.83 632.977L1667.57 629.231Z" fill="url(#paint0_linear_26_51)"/>
<path d="M1274.69 635.881L1296.68 657.777L1357.15 596.756L1406.5 640.943L1443.02 605.18L1421 582.214L1405.36 598.152L1355.94 551.291L1274.69 635.881Z" fill="white"/>
<path d="M1753.39 314.089L1703.41 384.395C1704.24 379.045 1691.75 362.488 1685.4 354.878L1728.9 294.35L1699.2 272.775L1791.57 231.669L1782.29 334.17L1753.39 314.089Z" fill="white"/>
<path d="M1561.09 331.571C1644.76 331.571 1711.61 397.093 1711.61 476.735C1711.61 556.376 1644.76 621.898 1561.09 621.898C1477.43 621.898 1410.58 556.377 1410.58 476.735C1410.58 397.093 1477.43 331.571 1561.09 331.571Z" stroke="url(#paint1_linear_26_51)" stroke-width="35"/>
<path d="M1567.51 592.311V417.341H1629.05V575.189C1601.76 593.382 1571.08 595.522 1567.51 592.311Z" fill="#E27421"/>
<path d="M312.999 113.169C310.999 128.002 307.899 162.569 311.499 182.169C312.166 186.002 317 194.569 331 198.169C348.5 202.669 384.5 206.669 400.5 205.669C413.3 204.869 419.166 189.669 420.5 182.169C425 164.836 434.1 125.069 434.5 104.669V104.669C434.753 91.7328 436.748 79.9072 425.08 74.3151C424.729 74.1465 424.369 73.9753 424.002 73.8014C421.694 72.7079 419.232 71.9242 416.724 71.4398L376.5 63.6691" stroke="white" stroke-width="3" stroke-linecap="round"/>
<path d="M407 178.169C416.5 161.669 423.5 87.1691 422 83.6691C421.129 81.6361 422.979 79.0718 424.816 80.3038C426.33 81.3194 427.549 82.466 428 83.6691C429.2 86.8691 428.5 100.002 428 106.169C426.5 141.669 415.833 172.669 413 182.669C412.465 185.345 409.812 188.915 407.316 191.735C405.215 194.107 398.203 198.165 395.283 199.397C387.867 202.528 401.279 194.243 403.983 186.66C405.182 183.297 406.209 179.95 407 178.169Z" fill="white" stroke="white" stroke-linecap="round"/>
<path d="M364.839 130.476L363.16 128.461C362.843 128.081 363.008 127.5 363.479 127.343C363.785 127.241 364.123 127.362 364.294 127.636C366.525 131.223 365.934 131.322 365.202 130.82C365.064 130.725 364.946 130.604 364.839 130.476Z" stroke="white" stroke-linecap="round"/>
<path d="M352.5 124.669C362.5 103.169 385 130.169 363.5 142.669" stroke="white" stroke-linecap="round"/>
<path d="M34 54.6691L18.5 95.1691L346.5 44.1691C356.5 35.7691 353.333 29.0024 350.5 26.6691L46.5 44.1691C40.9 46.5691 35.8333 52.1691 34 54.6691Z" fill="#E27421"/>
<path d="M394.5 120.169C392.5 112.169 384 104.836 380 102.169C383.167 105.836 389.9 114.969 391.5 122.169C393.1 129.369 392.167 137.169 391.5 140.169C390.7 149.369 378.833 160.002 373 164.169C386.6 160.569 393 147.669 394.5 140.669C395.333 137.836 396.5 128.169 394.5 120.169Z" fill="white"/>
<path d="M371 96.1691C386.356 96.1691 399 112.165 399 132.169C399 152.174 386.356 168.169 371 168.169C355.644 168.169 343 152.174 343 132.169C343 112.165 355.644 96.1691 371 96.1691Z" stroke="white"/>
<path d="M50.9998 167.169C47.2433 166.824 44.0048 166.394 41.2242 165.901C29.438 163.81 33.3634 137.313 32.5583 125.37C31.9869 116.895 38.7417 109.722 47.2357 109.785L300 111.643C301.937 111.658 303.5 113.232 303.5 115.169L301.798 163.679C301.602 169.273 302.619 174.843 304.78 180.006C308.463 188.804 315.261 195.936 323.873 200.037L342 208.669L325.372 201.807C315.535 197.747 305.056 195.464 294.422 195.064L151.331 189.682C151.116 189.673 150.909 189.596 150.74 189.462C149.997 188.867 150.418 187.669 151.369 187.669H275.172C282.807 187.669 295.802 181.089 288.912 177.797C287.285 177.02 286.144 177.144 284.342 177.091C220.923 175.208 89.6515 170.719 50.9998 167.169Z" fill="white" stroke="white" stroke-width="3" stroke-linecap="round"/>
<path d="M190.5 229.669C175.7 219.269 173.667 209.336 174.5 205.669L297.5 213.669L288.5 229.669V638.669H190.5V229.669Z" fill="#E27421" stroke="#E27421" stroke-width="6"/>
<path d="M185 218.669V214.669L218 206.169L222 218.669H185Z" fill="white"/>
<path d="M252 223.669L288 232.169V227.169L252 223.669Z" fill="white"/>
<defs>
<linearGradient id="paint0_linear_26_51" x1="1773.34" y1="637.085" x2="1665.91" y2="690.31" gradientUnits="userSpaceOnUse">
<stop stop-color="#FF984A"/>
<stop offset="0.25" stop-color="#E27421"/>
<stop offset="0.927885" stop-color="#FF923E"/>
</linearGradient>
<linearGradient id="paint1_linear_26_51" x1="1699.68" y1="413.595" x2="1441.77" y2="560.206" gradientUnits="userSpaceOnUse">
<stop stop-color="#FF984A"/>
<stop offset="0.25" stop-color="#E27421"/>
<stop offset="0.927885" stop-color="#FF923E"/>
</linearGradient>
</defs>
</svg>
